<svg xmlns="http://www.w3.org/2000/svg" xmlns:xlink="http://www.w3.org/1999/xlink" viewBox="0 0 1090 159.2">
  <g>
    <polygon fill="#1b1b1b" points="146,118.6 114.7,34.8 87.4,34.8 132.3,155.3 159.6,155.3 204.5,34.8 177.2,34.8 	"/>
    <path fill="#1b1b1b" d="M61,87.1c-2.4-1.1-12.4-5.5-14.3-6.3c-9.2-4-13.7-8.4-13.7-13.6c0-5.4,4.2-10.7,12.9-10.7
      c6.1,0,11.6,2.9,17,8.7l19-13.8c-7.6-11.6-21.6-18.8-36.7-18.8c-19.9,0-37.5,12.9-37.5,34.5c0,15,8.5,26.7,26,34.1
      c5.1,2.2,8.7,3.7,12.7,5.4c5.8,2.5,15.1,6.3,15.1,14.6c0,8.2-8.2,12.5-17,12.5c-7.9,0-16.3-5-23.5-14.1L1.1,134.1
      c7.7,11.5,23.3,23.6,44.2,23.6c23.5,0,41.8-14.4,41.8-36.8C87.1,106.2,78.6,95.1,61,87.1z"/>
    <path fill="#1b1b1b" d="M255.4,133.2c-5.8,0-10.7-3.5-13.3-8.5c-2-3.8-2-9.8-2-14.9v-50h27.8l9.3-24.9H240V0.5h-25.5v113.2
      c0,5.2,0.3,10,2.3,16.3c5.5,16.1,20.6,27.6,38.6,27.6c10.3,0,20.8-4,28.6-11.2l-16-18.3C264.6,131.1,260,133.2,255.4,133.2z"/>
    <path fill="#1b1b1b" d="M431,139.5l-71.4-103h-10.4v117h9.4V50.8l68,98c3,4.3,4.3,4.8,7.7,4.8h1.8c2.8,0,4.2-1.3,4.2-4.8V36.5H431
      V139.5z"/>
    <polygon fill="#1b1b1b" points="508.3,99.2 474.3,36.5 463.6,36.5 503.1,108.6 503.1,153.6 513.1,153.6 513.1,108.6 552.9,36.5
      542.4,36.5 	"/>
    <polygon fill="#1b1b1b" points="652.5,90.2 587,90.2 587,36.5 577,36.5 577,153.6 587,153.6 587,98.1 652.5,98.1 652.5,153.6
      662.6,153.6 662.6,36.5 652.5,36.5 	"/>
    <polygon fill="#1b1b1b" points="694,153.6 769.2,153.6 769.2,145.7 704,145.7 704,97.2 761.1,97.2 761.1,89.4 704,89.4 704,44.4
      769.2,44.4 769.2,36.5 694,36.5 	"/>
    <polygon fill="#1b1b1b" points="791.1,44.4 829.4,44.4 829.4,153.6 839.5,153.6 839.5,44.4 877.4,44.4 877.4,36.5 791.1,36.5 	"/>
    <polygon fill="#1b1b1b" points="899.8,153.6 975.1,153.6 975.1,145.7 909.9,145.7 909.9,97.2 966.9,97.2 966.9,89.4 909.9,89.4
      909.9,44.4 975.1,44.4 975.1,36.5 899.8,36.5 	"/>
    <path fill="#1b1b1b" d="M1087.6,73c0-20.9-16.2-36.4-35.4-36.4h-47.8v117h10v-44.1h35.8l25.7,44.1h11.4l-26.6-45.1
      C1076,104.6,1087.6,90.7,1087.6,73z M1049.6,101.6h-35.3V44.4h35.3c15.4,0,27.9,10.9,27.9,28.6S1065,101.6,1049.6,101.6z"/>
  </g>
</svg>
